<svg xmlns="http://www.w3.org/2000/svg" viewBox="0 0 512 512" width="512" height="512"><defs></defs><g transform="matrix(1,0,0,1,0,0)">
<g>
	<g>
		<g transform="matrix(1.271689137,0,0,1.271689137,70.682405961,5.518703585)">
			<path d="M-55.58151273956136,110.69294108561535 C-55.58151273956136,110.69294108561535 -55.58151273956136,225.72554617810084 -55.58151273956136,225.72554617810084 C-55.58151273956136,305.0670967294782 8.867693077613666,369.5163025496057 88.20924363022118,369.5163025496057 C88.20924363022118,369.5163025496057 260.75815127396027,369.5163025496057 260.75815127396027,369.5163025496057 C308.3630816028418,369.5163025496057 347.0326050958298,330.84677905910206 347.0326050958298,283.2418487282756 C347.0326050958298,283.2418487282756 347.0326050958298,110.69294107775136 347.0326050958298,110.69294107775136 C347.0326050958298,63.08801075478892 308.3630816028418,24.418487256421216 260.75815127396027,24.418487256421216 C260.75815127396027,24.418487256421216 30.692941082308167,24.418487256421216 30.692941082308167,24.418487256421216 C-16.91198924657337,24.418487264285204 -55.58151273956136,63.08801075478892 -55.58151273956136,110.69294108561535 ZM174.48369745209072,110.69294108561535 C174.48369745209072,110.70423788194174 174.4836996320089,110.71553416710907 174.4837039851378,110.72682996470928 C174.46867474387534,110.71553079345921 174.45364322879053,110.70423450042789 174.4386094264685,110.69294108561535 C174.4386094264685,110.69294108561535 174.48369745209072,110.69294108561535 174.48369745209072,110.69294108561535 Z" fill="#fe3d00"/>
		</g>
		<g transform="matrix(1.271689137,0,0,1.271689137,70.682405961,5.518703585)">
			<path d="M59.45109235626586,225.72554617813202 C59.45109235626586,225.72554617813202 59.45109235626586,144.37086662795724 59.45109235626586,144.37086662795724 C59.45109235626586,144.37086662795724 59.45109235626586,110.69294108230852 59.45109235626586,110.69294108230852 C59.45109235626586,94.82463090840204 46.56125125621645,81.93478980835263 30.692941082309986,81.93478980835263 C14.82463090840352,81.93478980835263 1.9347898083540969,94.82463090840204 1.9347898083540969,110.69294108230852 C1.9347898083540969,110.69294108230852 1.9347898083540969,225.72554617813202 1.9347898083540969,225.72554617813202 C1.9347898083540969,273.33047641226995 40.60431339608387,311.99999999999966 88.20924363022175,311.99999999999966 C135.81417386435965,311.99999999999966 174.4836974520894,273.33047641226995 174.4836974520894,225.72554617813202 C174.4836974520894,225.72554617813202 174.4836974520894,110.69294108230852 174.4836974520894,110.69294108230852 C174.4836974520894,94.82463090840204 161.59385635204,81.93478980835263 145.72554617813353,81.93478980835263 C129.85723600422705,81.93478980835263 116.96739490417764,94.82463090840204 116.96739490417764,110.69294108230852 C116.96739490417764,110.69294108230852 116.96739490417764,144.37086662795724 116.96739490417764,144.37086662795724 C116.96739490417764,144.37086662795724 116.96739490417764,225.72554617813202 116.96739490417764,225.72554617813202 C116.96739490417764,241.5938563520385 104.07755380412823,254.4836974520879 88.20924363022175,254.4836974520879 C72.34093345631527,254.4836974520879 59.45109235626586,241.5938563520385 59.45109235626586,225.72554617813202 Z" fill="#fefefe"/>
		</g>
		<g transform="matrix(1.271689137,0,0,1.271689137,70.682405961,5.518703585)">
			<path d="M289.51630254648325,283.2418487267583 C289.51630254648325,283.2418487267583 289.51630254648325,110.69294108154607 289.51630254648325,110.69294108154607 C289.51630254648325,94.82463097274767 276.6264613834806,81.93478980830442 260.7581512732416,81.93478980830442 C244.8898411630026,81.93478980830442 231.99999999999994,94.82463097274767 231.99999999999994,110.69294108298665 C231.99999999999994,110.69294108154607 231.99999999999994,283.2418487267583 231.99999999999994,283.2418487267583 C231.99999999999994,299.1101588369973 244.8898411630026,311.99999999999994 260.7581512732416,311.99999999999994 C276.6264613834806,311.99999999999994 289.51630254648325,299.1101588369973 289.51630254648325,283.2418487267583 Z" fill="#fefefe"/>
		</g>
	</g>
</g></g></svg>
